<svg width="1025" height="413" viewBox="0 0 1025 413" fill="none" xmlns="http://www.w3.org/2000/svg">
<g clip-path="url(#clip0_788_5046)">
<path d="M237.5 1.5L349 195.5H262.326L237.5 152.5L193 229H368.345L474 412H0L44 337H344.053L325 304H62L237.5 1.5Z" fill="#0071BD"/>
<path d="M749 1H274L380 185H555.053L511 261.301L486 218H399.354L511.5 412.243L686 110H424.341L405 76.5H705.41L749 1Z" fill="#0071BD"/>
<path d="M786.013 0.75L1023.59 412.25L1024.03 413H935.711L935.567 412.75L888.212 330.728H683.788L636.433 412.75L636.289 413H547.134L547.567 412.25L785.146 0.75L785.579 0L786.013 0.75ZM785.5 152.5L785.305 152.612L785.262 152.588L785.218 152.662L785.067 152.75L785.117 152.837L726.567 254.25L726.134 255H845.256L844.822 254.25L786.128 152.588L785.933 152.25L785.5 152.5Z" fill="#0071BD"/>
<path d="M897.79 412L869.5 363H702.79L674.5 412H897.79Z" fill="#FF911E"/>
</g>
<defs>
<clipPath id="clip0_788_5046">
<rect width="1025" height="413" fill="white"/>
</clipPath>
</defs>
</svg>
